<svg xmlns="http://www.w3.org/2000/svg" width="50.91" height="56.49" viewBox="0 0 50.91 56.49">
  <path id="Artboard_7" data-name="Artboard 7" d="M79.007,70.865H36.772a2.732,2.732,0,0,0-2.905,3.621A2.309,2.309,0,0,0,35.818,76.4a8.011,8.011,0,0,0,1.442.119H78.942v5.637H36.956a9.453,9.453,0,0,1-5.334-1.507,7.7,7.7,0,0,1-3.5-6.689c0-3.838,0-7.686,0-11.524V34.256a8.076,8.076,0,0,1,2.743-6.5,8.673,8.673,0,0,1,5.258-2.071H72.958a5.756,5.756,0,0,1,5.832,4.152,7.035,7.035,0,0,1,.217,1.572q0,19.513,0,39.027A1.865,1.865,0,0,1,79.007,70.865Z" transform="translate(-28.109 -25.673)" fill="#fff"/>
</svg>
