<svg xmlns="http://www.w3.org/2000/svg" width="56" height="56" viewBox="0 0 56 56">
  <path id="Artboard_8" data-name="Artboard 8" d="M47.884,74.96A28,28,0,1,1,75.91,46.872,28,28,0,0,1,47.884,74.96Zm-2.5-35.636h0v7.451a2.6,2.6,0,0,0,.681,1.918q3.871,3.889,7.76,7.751a2.369,2.369,0,0,0,2.492.574A2.528,2.528,0,0,0,57.3,52.74q-3.182-3.226-6.408-6.408a1.317,1.317,0,0,1-.442-1.034q0-6.6,0-13.187a4.251,4.251,0,0,0-.1-1.114,2.5,2.5,0,0,0-2.784-1.821,2.457,2.457,0,0,0-2.165,2.4C45.356,34.153,45.382,36.743,45.382,39.324Z" transform="translate(-19.91 -18.96)" fill="#ed8722"/>
</svg>
