<svg id="Group_909" data-name="Group 909" xmlns="http://www.w3.org/2000/svg" width="57.307" height="48.591" viewBox="0 0 57.307 48.591">
  <path id="Path_2463" data-name="Path 2463" d="M32.864,72.88H21.286c-.427,0-.853.007-1.278,0-1.462-.029-2.087-.616-2.1-2.1-.026-3.451-.013-6.9-.013-10.352V42.52H68.582c.026.437.071.848.071,1.258q.005,13.291,0,26.584c0,2.032-.5,2.521-2.568,2.521-4.121,0-8.243,0-12.663,0,.447.368.669.581.921.753q4.47,3.057,8.95,6.1c1.28.871,1.593,1.754.977,2.745-.649,1.044-1.692,1.17-2.977.3-4.566-3.1-9.114-6.239-13.695-9.322a4.353,4.353,0,0,0-1.746-.565c-4.181-.636-7.707.616-11.011,3.288a110.3,110.3,0,0,1-9.9,6.739,2.37,2.37,0,0,1-2.069.06,2.3,2.3,0,0,1-.731-1.814c.013-.456.569-1.006,1.019-1.32,3.239-2.257,6.513-4.462,9.776-6.684-.024-.095-.047-.191-.073-.286Zm1.865-24.318c-3.4,0-6.812.031-10.217-.018-1.117-.016-1.509.406-1.5,1.495q.044,7.535,0,15.069c-.007,1.085.408,1.557,1.489,1.555q10.152-.019,20.306,0c1.106,0,1.595-.421,1.584-1.6q-.066-7.47,0-14.941c.009-1.148-.4-1.595-1.566-1.577-3.363.049-6.726.016-10.089.018Zm22.067.259c-1.744,0-3.489-.009-5.235,0-1.157.009-1.887.6-1.785,1.5.117,1.023.784,1.385,1.786,1.378,3.489-.027,6.979-.016,10.468-.005.962,0,1.726-.237,1.743-1.369.016-1.154-.691-1.524-1.744-1.511-1.744.022-3.489.005-5.235.005Zm-.015,8.966c1.788,0,3.574,0,5.363,0,1,0,1.628-.45,1.633-1.513s-.684-1.394-1.6-1.4c-3.574-.011-7.149,0-10.725-.005-1.013,0-1.7.5-1.664,1.5.036.984.738,1.44,1.755,1.424,1.744-.027,3.489-.007,5.235-.007Zm-1.608,3.071c-1.188,0-2.377.005-3.565,0-1.044-.007-1.8.463-1.814,1.518-.009,1,.74,1.484,1.712,1.491q3.565.03,7.129,0c.962-.007,1.726-.452,1.744-1.458.02-1.072-.738-1.542-1.772-1.549-1.147-.007-2.291,0-3.438,0Z" transform="translate(-14.631 -34.77)" fill="#ed8722"/>
  <path id="Path_2464" data-name="Path 2464" d="M28.791,0H54.746c1.8,0,2.57.9,2.561,2.977-.009,1.989-.791,2.891-2.523,2.891H2.49C.758,5.869,0,4.976,0,2.953,0,.91.744,0,2.452,0Q15.619,0,28.791,0Z" transform="translate(0)" fill="#ed8722"/>
  <path id="Path_2465" data-name="Path 2465" d="M63.648,97.592c-1.037,1.373-2.007,2.659-2.98,3.943-.231.3-.459.612-.716.895a1.3,1.3,0,0,1-1.916.275,1.337,1.337,0,0,1-.343-2.014c1.575-2.162,3.175-4.307,4.827-6.413a1.392,1.392,0,0,1,2.3.144c1.15,1.356,2.237,2.767,3.414,4.233,1.671-1.806,3.277-3.547,4.889-5.282.346-.374.662-.915,1.09-1.039a2.571,2.571,0,0,1,1.828.082A1.165,1.165,0,0,1,76.21,94.3c-2.324,2.545-4.663,5.076-7.052,7.561a1.36,1.36,0,0,1-2.211-.166c-1.083-1.309-2.131-2.647-3.3-4.1Z" transform="translate(-46.918 -75.4)" fill="#ed8722"/>
</svg>
