<svg xmlns="http://www.w3.org/2000/svg" width="56.211" height="49.451" viewBox="0 0 56.211 49.451">
  <g id="Group_996" data-name="Group 996" transform="translate(-317 -1644)">
    <path id="Path_2415" data-name="Path 2415" d="M18,62.82c.37-.44.72-.9,1.12-1.32a29.6,29.6,0,0,0,6.11-9.73,38.3,38.3,0,0,0,2.66-12.59,2.317,2.317,0,0,1,.05-.57H74.15c-.1,1.3-.16,2.57-.31,3.83a39.45,39.45,0,0,1-4.92,15.45,29.05,29.05,0,0,1-4.77,6.26,2.57,2.57,0,0,1-1.91.77H20.16A2.07,2.07,0,0,1,18,63.7Z" transform="translate(299 1618.648)" fill="#ed8722"/>
    <path id="Path_2416" data-name="Path 2416" d="M28,68.2H62.29a5.62,5.62,0,0,0,4.1-1.64,34.3,34.3,0,0,0,7.35-10.82c.12-.26.23-.53.4-.93,0,.25.06.38.06.5V72.93a1.68,1.68,0,0,1-1.87,1.86H29.86A1.67,1.67,0,0,1,28,72.93C28,71.38,28,69.83,28,68.2Z" transform="translate(299 1618.648)" fill="#ed8722"/>
    <path id="Path_2417" data-name="Path 2417" d="M28,35.24v-5a1.6,1.6,0,0,1,1.74-1.52h8.12v-1.5a1.65,1.65,0,1,1,3.29,0v1.45h8.23V27.13a1.65,1.65,0,1,1,3.29,0v1.55H61V27.17a1.65,1.65,0,1,1,3.29,0v1.55h8a1.68,1.68,0,0,1,1.87,1.86v4.69Z" transform="translate(299 1618.648)" fill="#ed8722"/>
  </g>
</svg>
