<svg xmlns="http://www.w3.org/2000/svg" width="79.71" height="46.455" viewBox="0 0 79.71 46.455">
  <g id="Group_997" data-name="Group 997" transform="translate(-715.145 -1911)">
    <path id="Path_2440" data-name="Path 2440" d="M90,69.28a1.93,1.93,0,0,1-2,1.15H78.74a2.07,2.07,0,0,1-2.12-1.68,201.127,201.127,0,0,0-8.69-24.17,11.821,11.821,0,0,0-.8-1.59c-.74-1.18-.38-2,1-2.52A39.2,39.2,0,0,1,77.82,38c3.34-.39,6.71-.53,10.06-.81A2,2,0,0,1,90,38.3Z" transform="translate(704.855 1877.066)" fill="#ed8722"/>
    <path id="Path_2441" data-name="Path 2441" d="M65.42,74.69A3.12,3.12,0,0,1,62,76.26a2.16,2.16,0,0,1-.95-.61c-2.49-2.46-5-5-7.44-7.42a6,6,0,0,0-.75-.68,1.56,1.56,0,0,0-2.05.25,1.53,1.53,0,0,0-.2,2,3.78,3.78,0,0,0,.56.64c2.26,2.26,4.5,4.53,6.78,6.76a.93.93,0,0,1,.24,1.27,2.21,2.21,0,0,1-3.66.65Q51.42,76,48.34,72.94a1.72,1.72,0,0,0-1.73-.63,1.64,1.64,0,0,0-.72,2.82c1.47,1.5,3,3,4.45,4.46.21.2.44.36.66.55l-.07.2a4.4,4.4,0,0,1-1.31,0A12.77,12.77,0,0,1,46,78.87C40.86,75,35.82,71.07,30.81,67.09a28.829,28.829,0,0,1-3-3.06.71.71,0,0,1-.12-.6A181.9,181.9,0,0,0,32.8,44.21a2,2,0,0,1,.11-.31h6.47c-.19.24-.32.42-.47.58a17.83,17.83,0,0,0-3.63,6,11,11,0,0,0-.5,2.27,4.1,4.1,0,0,0,3,4.37c3.72,1.23,6.69,0,9.23-2.71a3.54,3.54,0,0,1,1.14-.65c.73-.31,1.49-.54,2.2-.87.51-.24.88-.4,1.43.06,5,4.18,10.08,8.31,15.09,12.51a21.24,21.24,0,0,1,2.69,2.91,6.34,6.34,0,0,1,1,2,1.79,1.79,0,0,1-2.91,2l-9-9a1.81,1.81,0,0,0-1.71-.7,1.67,1.67,0,0,0-1.3,1.21,1.62,1.62,0,0,0,.55,1.68q2.94,3,5.89,5.89C63.21,72.52,64.3,73.59,65.42,74.69Z" transform="translate(704.855 1877.066)" fill="#ed8722"/>
    <path id="Path_2442" data-name="Path 2442" d="M10.29,50.56V36.1c0-1.64.64-2.28,2.27-2.15a73.2,73.2,0,0,1,12.76,1.74,24.17,24.17,0,0,1,3.86,1.56,1.86,1.86,0,0,1,1,2.3c-.53,2.79-.9,5.63-1.6,8.38C27.11,53.55,25.42,59.1,24,64.7c-.7,2.65-1.36,2.41-3.22,2.4H12.3c-1.42,0-2-.54-2-2Z" transform="translate(704.855 1877.066)" fill="#ed8722"/>
    <path id="Path_2443" data-name="Path 2443" d="M72.85,66.46a1.63,1.63,0,0,1-.29-.23c-3.18-3.77-7-6.81-10.82-9.93-2.66-2.19-5.24-4.48-7.86-6.73A2.76,2.76,0,0,0,51.06,49c-1,.33-1.85.8-2.79,1.16a4.42,4.42,0,0,1-1.28.3,2.18,2.18,0,0,0-1.68,1A12.86,12.86,0,0,1,44,53a4.16,4.16,0,0,1-4.67.91,1.1,1.1,0,0,1-.84-1.41,11.58,11.58,0,0,1,.82-2.34,21.9,21.9,0,0,1,8.34-8.39,7.48,7.48,0,0,1,6.62-.26c2.6,1,5.17,2,7.75,3a19.161,19.161,0,0,0,2.21.75,1.71,1.71,0,0,1,1.3,1.16c1.92,5,3.86,10.06,5.77,15.1.52,1.38,1,2.78,1.47,4.17.08.24.15.48.22.72Z" transform="translate(704.855 1877.066)" fill="#ed8722"/>
  </g>
</svg>
