<svg xmlns="http://www.w3.org/2000/svg" width="64.591" height="52.126" viewBox="0 0 64.591 52.126">
  <g id="Group_999" data-name="Group 999" transform="translate(-1129.375 -1905)">
    <path id="Path_2425" data-name="Path 2425" d="M84.433,41.387l-2.9,8.376q-2.339,6.781-4.651,13.6a1.958,1.958,0,0,1-2.275,1.632H48.389c-1.305,0-2.085-.68-2.049-1.813a1.668,1.668,0,0,1,1.5-1.6,7.114,7.114,0,0,1,.762,0h24.64a.771.771,0,0,0,.907-.616c2.284-6.736,4.605-13.453,6.9-20.18a1.813,1.813,0,0,1,1.614-1.46,1.886,1.886,0,0,1,1.813,1.2Z" transform="translate(1109.488 1885.008)" fill="#ed8722"/>
    <path id="Path_2426" data-name="Path 2426" d="M17.16,72.083V47.588a8.612,8.612,0,0,1,7.162-8.458,9.319,9.319,0,0,1,11.2,9.165v4.533H57.556a3.9,3.9,0,0,1,3.953,2.547c.907,2.611-.979,5.068-3.88,5.086H36.2a4.623,4.623,0,0,1-3.771-1.632c-2.149-2.448-4.379-4.814-6.582-7.252-.154-.172-.308-.408-.5-.462a.907.907,0,0,0-.734.1,1.015,1.015,0,0,0-.109.716c0,.145.181.272.3.4q3.536,3.844,7.062,7.715a4.687,4.687,0,0,0,3.626,1.6V72.083Z" transform="translate(1112.215 1885.043)" fill="#ed8722"/>
    <path id="Path_2427" data-name="Path 2427" d="M45.032,27.5a9.51,9.51,0,1,1-2.808-6.738A9.546,9.546,0,0,1,45.032,27.5Z" transform="translate(1111.394 1887)" fill="#ed8722"/>
    <path id="Path_2428" data-name="Path 2428" d="M79.749,69v4.46H40.6c-1.487,0-2.085-.607-2.085-2.112V70.44A1.623,1.623,0,0,1,40.024,69a6.143,6.143,0,0,1,.816,0Z" transform="translate(1110.22 1882.235)" fill="#ed8722"/>
  </g>
</svg>
