<svg xmlns="http://www.w3.org/2000/svg" width="55.22" height="65.713" viewBox="0 0 55.22 65.713">
  <g id="Group_998" data-name="Group 998" transform="translate(-1534.29 -1881)">
    <path id="Path_2438" data-name="Path 2438" d="M52.72,19l19.3,9.416a2.731,2.731,0,0,1,.6.377.858.858,0,0,1,0,1.423,1.046,1.046,0,0,1-.366.251c-.983.251-1.14.921-1.046,1.831.084,1.172,0,2.354,0,3.526a1.977,1.977,0,0,0,.46,1.643,1.2,1.2,0,0,1,0,1.5,1.423,1.423,0,0,0-.188.847c.167,1.14.377,2.27.607,3.4.115.534-.052.868-.565.931a11.958,11.958,0,0,1-2.03,0c-.481,0-.67-.366-.565-.868.241-1.193.46-2.4.649-3.6a1.046,1.046,0,0,0-.136-.68,1.381,1.381,0,0,1,.115-1.862,1.046,1.046,0,0,0,.251-.544V31.659l-2.469,1.193c-.628.314-1.486.481-1.82,1.046s-.115,1.36-.209,2.092c-.178,1.423-.387,2.846-.617,4.258a1.046,1.046,0,0,0,.282,1.046,2.3,2.3,0,0,1,.565,1.046,6.56,6.56,0,0,1-.544,4.6,2.448,2.448,0,0,1-1.046.963,2.281,2.281,0,0,0-1.287,1.433,11.425,11.425,0,0,1-9.322,8.443,9.217,9.217,0,0,1-6.905-2.009A11.508,11.508,0,0,1,41.892,49a1.977,1.977,0,0,0-.931-1.13,3.065,3.065,0,0,1-1.768-2.427A11.508,11.508,0,0,1,39,42.833a3.191,3.191,0,0,1,.649-1.622,1.517,1.517,0,0,0,.3-1.214c-.241-1.883-.46-3.777-.638-5.67a.9.9,0,0,0-.575-.858c-2.009-.868-4-1.915-5.995-2.888a4.437,4.437,0,0,1-.617-.345.9.9,0,0,1,0-1.58,5.022,5.022,0,0,1,.732-.408l17.786-8.694c.408-.209.847-.377,1.276-.554Z" transform="translate(1509.546 1862)" fill="#ed8722"/>
    <path id="Path_2439" data-name="Path 2439" d="M80.165,82.869H25.06v-.764c0-3.651.073-7.324,0-10.975a4.049,4.049,0,0,1,1.8-3.672,51.854,51.854,0,0,1,4.677-2.877,27.829,27.829,0,0,1,3.536-1.507,53.011,53.011,0,0,0,7.711-3.8c1.119-.628,1.632-.492,2.218.649,1.465,2.825,2.877,5.681,4.363,8.5a15.955,15.955,0,0,0,1.705,2.553c1.151,1.433,2.092,1.475,3.139,0a36.9,36.9,0,0,0,2.762-4.467c1.193-2.166,2.239-4.363,3.369-6.623.544-1.046,1.109-1.255,2.092-.638,3.547,2.2,7.449,3.62,11.236,5.3A16.248,16.248,0,0,1,79.4,68.326a2.982,2.982,0,0,1,.868,2.092v12a3.755,3.755,0,0,1-.1.45Z" transform="translate(1509.24 1863.844)" fill="#ed8722"/>
  </g>
</svg>
