<svg xmlns="http://www.w3.org/2000/svg" width="60" height="48" viewBox="0 0 60 48">
  <path id="Icon_awesome-user-clock" data-name="Icon awesome-user-clock" d="M46.5,21A13.5,13.5,0,1,0,60,34.5,13.491,13.491,0,0,0,46.5,21Zm6,14.091a.916.916,0,0,1-.909.909H45.909A.916.916,0,0,1,45,35.091V27.909A.916.916,0,0,1,45.909,27h1.181a.916.916,0,0,1,.909.909V33h3.591a.916.916,0,0,1,.909.909ZM30,34.5a16.442,16.442,0,0,1,1.706-7.266A12.492,12.492,0,0,0,29.4,27H27.834a16.32,16.32,0,0,1-13.669,0H12.6A12.6,12.6,0,0,0,0,39.6v3.9A4.5,4.5,0,0,0,4.5,48H37.041A16.5,16.5,0,0,1,30,34.5ZM21,24A12,12,0,1,0,9,12,12,12,0,0,0,21,24Z" fill="#ed8722"/>
</svg>
