<svg xmlns="http://www.w3.org/2000/svg" width="64.38" height="51.504" viewBox="0 0 64.38 51.504">
  <path id="Icon_awesome-chalkboard-teacher" data-name="Icon awesome-chalkboard-teacher" d="M20.923,35.409a2.3,2.3,0,0,0-.71.11,13.27,13.27,0,0,1-4.118.7,13.281,13.281,0,0,1-4.119-.7,2.3,2.3,0,0,0-.709-.11A11.267,11.267,0,0,0,0,46.738,4.816,4.816,0,0,0,4.829,51.5H27.361a4.816,4.816,0,0,0,4.828-4.766A11.267,11.267,0,0,0,20.923,35.409ZM16.095,32.19a9.657,9.657,0,1,0-9.657-9.657A9.657,9.657,0,0,0,16.095,32.19ZM59.551,0H20.923a4.916,4.916,0,0,0-4.828,4.988V9.657a12.73,12.73,0,0,1,6.438,1.791V6.438H57.942V35.409H51.5V28.971H38.628v6.438H30.959a12.821,12.821,0,0,1,3.993,6.438h24.6a4.916,4.916,0,0,0,4.829-4.988V4.988A4.916,4.916,0,0,0,59.551,0Z" transform="translate(0)" fill="#ed8722"/>
</svg>
